<svg xmlns="http://www.w3.org/2000/svg" viewBox="0 0 30 30"><defs><style>.cls-1{fill:#ef9235;}.cls-2{fill:#fff;}</style></defs><g id="レイヤー_2" data-name="レイヤー 2"><g id="レイヤー_1-2" data-name="レイヤー 1"><g id="cafe"><rect class="cls-1" width="30" height="30" rx="5"/><path class="cls-2" d="M23,27.72H3.94a1.39,1.39,0,1,1,0-2.78H23a1.39,1.39,0,0,1,0,2.78Z"/><path class="cls-2" d="M21.83,22.69a8.48,8.48,0,0,1-1.38-.11,1.35,1.35,0,0,1,.42-2.66,5.91,5.91,0,0,0,4.58-1.1,3.27,3.27,0,0,0,1.05-2.74c-.05-1.37-.62-1.61-.84-1.7a3.5,3.5,0,0,0-2.79.4,1.38,1.38,0,0,1-1.9-.06,1.32,1.32,0,0,1,0-1.86,6,6,0,0,1,5.64-1A4.2,4.2,0,0,1,29.2,16a6,6,0,0,1-2,4.87A8.16,8.16,0,0,1,21.83,22.69Z"/><path class="cls-2" d="M21.6,9.9a11.5,11.5,0,0,0-5.37-1.5,2.12,2.12,0,0,1-4.09-.11c-4.8.15-6.54,1.26-7.39,1.62A2.37,2.37,0,0,0,3.2,12.17s0,2.05.22,4.25A9.32,9.32,0,0,0,13.19,25c7.86,0,9.16-6.74,9.49-8.62s.47-4.21.47-4.21A2.56,2.56,0,0,0,21.6,9.9Z"/><path class="cls-2" d="M16.23,8.4a2.19,2.19,0,0,0,.1-.63,2.13,2.13,0,1,0-4.26,0,2.25,2.25,0,0,0,.07.52h1C14.36,8.28,15.36,8.32,16.23,8.4Z"/><path class="cls-1" d="M13.17,16.44c-2.1,0-5.06-.35-7.17-2A1,1,0,0,1,5.81,13a1,1,0,0,1,1.39-.19l0,0a9.8,9.8,0,0,0,5.94,1.58,10.23,10.23,0,0,0,6-1.6,1,1,0,0,1,1.25,1.56C20.33,14.48,17.87,16.44,13.17,16.44Z"/><path class="cls-1" d="M17.79,15.29H8a1,1,0,0,1-.9-.57,1,1,0,0,1,.13-1.06c.33-.4,1.53-1.32,5.66-1.32s5.32.92,5.65,1.32a1,1,0,0,1,.13,1.06A1,1,0,0,1,17.79,15.29Z"/><ellipse class="cls-2" cx="12.15" cy="3.67" rx="2.86" ry="2.69"/><ellipse class="cls-2" cx="16.12" cy="5.43" rx="2.24" ry="2.03"/></g></g></g></svg>